<svg width="18" height="20" viewBox="0 0 18 20" fill="none" xmlns="http://www.w3.org/2000/svg">
<path d="M2.30773 19.5001C1.8026 19.5001 1.37503 19.3251 1.02503 18.9751C0.675031 18.6251 0.500031 18.1975 0.500031 17.6924V4.30784C0.500031 3.80271 0.675031 3.37514 1.02503 3.02514C1.37503 2.67514 1.8026 2.50014 2.30773 2.50014H3.69236V0.384766H5.23078V2.50014H12.8077V0.384766H14.3077V2.50014H15.6923C16.1974 2.50014 16.625 2.67514 16.975 3.02514C17.325 3.37514 17.5 3.80271 17.5 4.30784V17.6924C17.5 18.1975 17.325 18.6251 16.975 18.9751C16.625 19.3251 16.1974 19.5001 15.6923 19.5001H2.30773ZM2.30773 18.0001H15.6923C15.7692 18.0001 15.8397 17.9681 15.9039 17.904C15.968 17.8399 16 17.7693 16 17.6924V8.30784H2.00001V17.6924C2.00001 17.7693 2.03206 17.8399 2.09616 17.904C2.16027 17.9681 2.2308 18.0001 2.30773 18.0001ZM2.00001 6.80787H16V4.30784C16 4.23091 15.968 4.16038 15.9039 4.09627C15.8397 4.03217 15.7692 4.00012 15.6923 4.00012H2.30773C2.2308 4.00012 2.16027 4.03217 2.09616 4.09627C2.03206 4.16038 2.00001 4.23091 2.00001 4.30784V6.80787Z" fill="black"/>
</svg>
