<svg width="194" height="21" viewBox="0 0 194 21" fill="none" xmlns="http://www.w3.org/2000/svg">
<path d="M0.38 16H9.9V13.54H3.02V1.74H0.38V16ZM19.2295 13.8L19.4695 16H21.6695V4.5H19.0295V10.48C19.0295 12.52 18.1495 13.94 16.4095 13.94C14.6095 13.94 14.0695 12.7 14.0695 10.9V4.5H11.4495V11.62C11.4495 14.48 12.7495 16.24 15.5095 16.24C17.4095 16.24 18.6495 15.3 19.2295 13.8ZM29.3091 16.3C32.4891 16.3 34.7091 14.8 34.9691 11.4V11.34H32.2291V11.36C31.9691 13.12 31.0091 14 29.3291 14C27.4091 14 26.2491 12.72 26.2491 10.44V10.18C26.2491 7.74 27.5091 6.46 29.3491 6.46C30.9491 6.46 31.9691 7.26 32.2091 9.06V9.12H34.9491V9.08C34.6891 5.72 32.5091 4.22 29.3291 4.22C27.1091 4.22 25.3091 5.16 24.2891 6.92C23.7891 7.8 23.5291 8.9 23.5291 10.18V10.48C23.5291 14.24 25.6291 16.3 29.3091 16.3ZM44.8788 13.7L45.1588 16H47.2788V8.24C47.2788 6.58 46.6788 5.36 45.1788 4.72C44.4188 4.38 43.4588 4.22 42.1988 4.22C38.8988 4.22 36.9788 5.94 36.7988 8.56H39.4988C39.5788 7.08 40.4388 6.26 42.3388 6.26C44.1388 6.26 44.7588 6.86 44.7588 7.82C44.7588 8.76 43.9388 9.04 41.8788 9.3C40.4388 9.52 39.5788 9.68 38.8988 9.92C38.5788 10.02 38.2388 10.18 37.9188 10.4C36.9788 10.98 36.4188 11.94 36.4188 13.22C36.4188 15.1 37.6788 16.3 40.1788 16.3C42.5588 16.3 44.0988 15.2 44.8788 13.7ZM41.0788 14.28C39.8788 14.28 39.2788 13.8 39.2788 12.84C39.2788 12.34 39.4988 11.94 39.9588 11.64C40.4988 11.3 41.0588 11.14 42.4588 10.92C43.4988 10.76 44.2988 10.52 44.7788 10.18V10.8C44.7788 11.9 44.1588 13.06 43.0388 13.76C42.4788 14.1 41.8388 14.28 41.0788 14.28ZM54.3931 16.3C57.7931 16.3 59.3931 14.68 59.3931 12.46C59.3931 11.18 58.8531 10.4 57.9931 9.94C57.1331 9.48 56.0731 9.3 55.0331 9.14C53.9331 8.98 52.9131 8.84 52.3331 8.5C52.0331 8.32 51.8931 8.04 51.8931 7.7C51.8931 6.9 52.3931 6.32 54.0331 6.32C55.5531 6.32 56.3131 6.82 56.4931 7.94H59.1731C58.8531 5.64 57.3531 4.22 54.0531 4.22C50.8931 4.22 49.3131 5.74 49.3131 7.86C49.3131 9.14 49.8531 9.92 50.7131 10.38C51.5731 10.84 52.6331 11.02 53.6731 11.18C54.7731 11.34 55.7731 11.48 56.3531 11.82C56.6531 12 56.7931 12.28 56.7931 12.62C56.7931 13.54 56.1331 14.1 54.4531 14.1C52.8131 14.1 51.8731 13.56 51.6331 12.2H48.7931C49.1331 14.88 50.8531 16.3 54.3931 16.3ZM77.8489 11.98L78.2089 16H83.9489V8H74.4489V10.5H77.2689C76.9489 11.14 76.3089 11.48 75.2089 11.48C73.4889 11.48 73.0089 10.64 73.0089 9.12C73.0089 7.36 73.7089 6.56 75.2089 6.56C76.2289 6.56 76.6889 6.84 76.9889 7.34H83.9689C83.5489 3.06 80.4289 1.22 75.3289 1.22C69.7489 1.22 66.5089 3.96 66.5089 9.3C66.5089 14.04 68.5889 16.38 72.7889 16.38C74.9089 16.38 76.2689 15.86 77.0489 14.58C77.4489 13.94 77.7089 13.08 77.8489 11.98ZM85.3059 16H91.8859V12.48C91.8859 11.36 92.0659 10.76 92.7059 10.5C93.0259 10.36 93.4859 10.3 94.1059 10.3H96.6259V4.06H95.5459C92.9459 4.06 91.6259 5.06 91.3259 7.84L90.4859 4.3H85.3059V16ZM113.349 12.04H106.809C106.629 12.3 106.349 12.46 105.489 12.46C104.249 12.46 103.649 12.06 103.429 11.28H113.409V10.24C113.409 8.52 112.889 7.02 111.649 5.86C110.409 4.7 108.469 4.04 105.609 4.04C101.769 4.04 99.3492 5.18 98.1692 7.14C97.5892 8.14 97.2892 9.26 97.2892 10.54C97.2892 12.14 97.7292 13.56 98.9092 14.66C100.089 15.74 102.069 16.38 105.169 16.38C110.209 16.38 112.629 14.96 113.349 12.04ZM105.389 8.08C106.469 8.08 107.009 8.32 107.229 9.04H103.529C103.789 8.42 104.369 8.08 105.389 8.08ZM120.626 20.76H121.846C127.686 20.76 130.186 19.4 130.186 16.22C130.186 14.56 129.446 13.52 127.686 12.98C126.806 12.72 125.626 12.58 124.126 12.58H119.946C118.466 12.58 118.226 12.56 118.226 12.3C118.226 12.06 118.526 11.94 119.926 11.94H122.286C126.066 11.94 128.106 11.36 129.046 10.2C129.506 9.64 129.726 8.92 129.726 8.06C129.726 6.24 128.766 5.26 126.946 4.76C126.406 4.6 125.746 4.5 124.946 4.42C126.846 4.42 128.046 4.38 128.746 4.08C129.466 3.78 129.706 3.18 129.706 2.06V1.6H123.366V2.7C123.366 3.86 123.206 4.04 122.206 4.04H121.366C116.266 4.04 114.046 5.5 114.046 8.04C114.046 9.92 115.046 10.86 117.506 11.26C114.966 11.58 113.966 12.46 113.966 13.96C113.966 15.4 114.986 16.28 117.886 16.46C115.846 16.52 114.666 16.94 114.106 17.52C113.846 17.84 113.706 18.16 113.706 18.5C113.706 19.22 114.066 19.78 115.086 20.18C116.106 20.56 117.846 20.76 120.626 20.76ZM121.966 8.7C120.326 8.7 119.866 8.58 119.866 8.2C119.866 7.78 120.346 7.64 121.746 7.62H121.986C123.706 7.62 124.126 7.78 124.126 8.2C124.126 8.54 123.626 8.7 121.966 8.7ZM122.506 17.54H121.986C119.946 17.54 119.346 17.38 119.346 17C119.346 16.7 119.586 16.5 121.146 16.5H123.566C124.666 16.5 124.946 16.64 124.946 16.96V16.98C124.946 17.16 124.746 17.36 124.046 17.46C123.706 17.52 123.186 17.54 122.506 17.54ZM138.236 16.38C141.636 16.38 143.976 15.34 145.236 13.52C145.856 12.6 146.156 11.54 146.156 10.28C146.156 7.82 144.916 5.92 142.556 4.84C141.376 4.3 139.956 4.04 138.276 4.04C134.896 4.04 132.536 5.16 131.276 7.04C130.636 7.98 130.336 9.04 130.336 10.28C130.336 12.8 131.356 14.64 133.696 15.64C134.856 16.12 136.356 16.38 138.236 16.38ZM138.236 11.66C137.216 11.66 136.616 11.18 136.616 10.26C136.616 9.24 137.216 8.72 138.236 8.72C139.236 8.72 139.876 9.24 139.876 10.26C139.876 11.18 139.256 11.66 138.236 11.66ZM147.22 16H153.8V12.48C153.8 11.36 153.98 10.76 154.62 10.5C154.94 10.36 155.4 10.3 156.02 10.3H158.54V4.06H157.46C154.86 4.06 153.54 5.06 153.24 7.84L152.4 4.3H147.22V16ZM162.862 4.5C165.202 4.5 166.282 3.92 166.282 2.36C166.282 0.76 165.082 0.18 162.862 0.18C160.602 0.18 159.442 0.76 159.442 2.36C159.442 3.94 160.362 4.5 162.862 4.5ZM159.662 4.38V16H166.062V4.38C165.502 4.88 164.502 5.18 162.842 5.18C161.202 5.18 160.202 4.88 159.662 4.38ZM175.033 16.38C178.433 16.38 180.773 15.34 182.033 13.52C182.653 12.6 182.953 11.54 182.953 10.28C182.953 7.82 181.713 5.92 179.353 4.84C178.173 4.3 176.753 4.04 175.073 4.04C171.693 4.04 169.333 5.16 168.073 7.04C167.433 7.98 167.133 9.04 167.133 10.28C167.133 12.8 168.153 14.64 170.493 15.64C171.653 16.12 173.153 16.38 175.033 16.38ZM175.033 11.66C174.013 11.66 173.413 11.18 173.413 10.26C173.413 9.24 174.013 8.72 175.033 8.72C176.033 8.72 176.673 9.24 176.673 10.26C176.673 11.18 176.053 11.66 175.033 11.66ZM188.917 10.54C190.517 10.54 191.897 9.82 192.697 8.5C193.077 7.86 193.277 7.08 193.277 6.16V5.92C193.277 4.1 192.457 2.78 191.117 2.06C190.457 1.72 189.717 1.54 188.877 1.54C187.237 1.54 185.857 2.28 185.077 3.62C184.677 4.28 184.477 5.06 184.477 5.98V6.2C184.477 8.08 185.317 9.36 186.657 10.04C187.337 10.36 188.077 10.54 188.917 10.54ZM188.917 9.48C186.877 9.48 185.557 8.32 185.557 6.12V6.06C185.557 3.86 186.837 2.56 188.877 2.56C190.897 2.56 192.217 3.8 192.217 6.02V6.08C192.217 8.3 190.957 9.48 188.917 9.48ZM188.177 6.76H188.917C189.617 6.76 189.717 6.94 189.717 7.48V7.92C189.717 8.02 189.737 8.16 189.817 8.22H190.837C190.757 8.16 190.717 8.06 190.717 7.92V7.48C190.717 6.78 190.477 6.44 189.917 6.34C190.537 6.16 190.877 5.78 190.877 5.12C190.877 4.28 190.377 3.7 189.057 3.7H187.177V8.22H188.177V6.76ZM188.917 5.88H188.177V4.56H188.937C189.617 4.56 189.877 4.7 189.877 5.16C189.877 5.66 189.557 5.9 188.917 5.88Z" fill="white"/>
</svg>
