<svg width="38" height="16" viewBox="0 0 38 16" fill="none" xmlns="http://www.w3.org/2000/svg">
<path d="M0.38 15H9.9V12.54H3.02V0.739999H0.38V15ZM22.1067 10.98L22.4667 15H28.2067V7H18.7067V9.5H21.5267C21.2067 10.14 20.5667 10.48 19.4667 10.48C17.7467 10.48 17.2667 9.64 17.2667 8.12C17.2667 6.36 17.9667 5.56 19.4667 5.56C20.4867 5.56 20.9467 5.84 21.2467 6.34H28.2267C27.8067 2.06 24.6867 0.22 19.5867 0.22C14.0067 0.22 10.7667 2.96 10.7667 8.3C10.7667 13.04 12.8467 15.38 17.0467 15.38C19.1667 15.38 20.5267 14.86 21.3067 13.58C21.7067 12.94 21.9667 12.08 22.1067 10.98ZM33.5052 8.66C34.9252 8.66 36.1452 8.1 36.8052 6.94C37.1452 6.38 37.3252 5.7 37.3252 4.86V4.36C37.3252 2.72 36.5852 1.58 35.4052 0.94C34.8252 0.639999 34.1652 0.48 33.4452 0.48C32.0252 0.48 30.8052 1.12 30.1052 2.3C29.7652 2.88 29.5852 3.58 29.5852 4.42V4.86C29.5852 6.62 30.3252 7.72 31.5252 8.26C32.1052 8.52 32.7852 8.66 33.5052 8.66ZM33.5052 7.6C31.8452 7.6 30.7852 6.64 30.7852 4.76V4.52C30.7852 2.62 31.8652 1.6 33.4452 1.6C35.0452 1.6 36.1452 2.58 36.1452 4.46V4.76C36.1452 6.64 35.1052 7.6 33.5052 7.6ZM32.9652 5.34H33.4652C33.9652 5.34 34.0652 5.44 34.0652 5.92V6.44C34.0652 6.58 34.0852 6.68 34.1452 6.7H35.2252C35.1652 6.68 35.1452 6.6 35.1452 6.46V5.92C35.1452 5.3 34.9252 5 34.4652 4.86C35.0052 4.7 35.2852 4.36 35.2852 3.78C35.2852 2.98 34.8052 2.42 33.6052 2.42H31.9052V6.7H32.9652V5.34ZM32.9652 3.34H33.4452C33.9852 3.34 34.2252 3.44 34.2252 3.84C34.2252 4.18 33.9852 4.38 33.4452 4.38H32.9652V3.34Z" fill="white"/>
</svg>
