<svg width="20" height="22" viewBox="0 0 20 22" fill="none" xmlns="http://www.w3.org/2000/svg">
<path d="M16.5 7.60005L15.45 5.25005L13.1 4.20005L15.45 3.12505L16.5 0.800049L17.55 3.12505L19.9 4.20005L17.55 5.25005L16.5 7.60005ZM16.5 21.2001L15.45 18.875L13.1 17.8L15.45 16.75L16.5 14.4L17.55 16.75L19.9 17.8L17.55 18.875L16.5 21.2001ZM6.87501 17.8L4.77501 13.125L0.100006 11L4.77501 8.87505L6.87501 4.20005L9.00001 8.87505L13.675 11L9.00001 13.125L6.87501 17.8ZM6.87501 14.15L7.87501 12L10.025 11L7.87501 10L6.87501 7.85005L5.87501 10L3.72501 11L5.87501 12L6.87501 14.15Z" fill="black"/>
</svg>
